<?xml version="1.0" encoding="iso-8859-1"?>
<!-- Generator: Adobe Illustrator 18.1.1, SVG Export Plug-In . SVG Version: 6.00 Build 0)  -->
<svg version="1.1" id="Capa_1" xmlns="http://www.w3.org/2000/svg" xmlns:xlink="http://www.w3.org/1999/xlink" x="0px" y="0px"
	 viewBox="0 0 312.35 312.35" style="enable-background:new 0 0 312.35 312.35;" xml:space="preserve">
<g>
	<path style="fill:#010002;" d="M286.478,110.541c-23.165-48.451-60.559-54.76-81.091-45.28c-8.931,4.123-17.862,6.946-25.101,8.822
		c-8.724,2.263-19.613,3.285-24.111,3.285c-4.487,0-15.376-1.023-24.106-3.285c-7.239-1.876-16.176-4.699-25.101-8.822
		c-20.532-9.48-57.926-3.171-81.102,45.28c-23.165,48.451-44.236,132.191,0,139.556c44.241,7.37,53.716-43.175,72.671-58.454
		c18.961-15.273,32.662-17.905,49.512-17.905h16.257c16.856,0,30.54,2.633,49.501,17.905c18.961,15.278,28.441,65.829,72.671,58.454
		C330.72,242.732,309.654,158.992,286.478,110.541z M55.884,129.507c-9.018,0-16.334-7.31-16.334-16.334
		c0-9.018,7.316-16.328,16.334-16.328s16.328,7.31,16.328,16.328C72.212,122.197,64.907,129.507,55.884,129.507z M89.851,71.331
		c9.023,0,16.334,7.305,16.334,16.328s-7.31,16.328-16.334,16.328c-9.013,0-16.328-7.305-16.328-16.328
		C73.523,78.635,80.833,71.331,89.851,71.331z M101.697,162.152c-13.081,0-23.698-10.606-23.698-23.698
		c0-13.086,10.612-23.698,23.698-23.698c13.097,0,23.698,10.606,23.698,23.698C125.4,151.546,114.8,162.152,101.697,162.152z
		 M135.408,105.831c-7.125,0-12.901-3.008-12.901-6.712c0-3.715,5.776-6.717,12.901-6.717c7.131,0,12.901,3.008,12.901,6.717
		C148.31,102.823,142.534,105.831,135.408,105.831z M161.712,99.114c0-3.715,5.776-6.717,12.901-6.717s12.901,3.008,12.901,6.717
		c0,3.709-5.776,6.712-12.901,6.712C167.488,105.831,161.712,102.823,161.712,99.114z M208.314,162.152
		c-13.092,0-23.693-10.606-23.693-23.698c0-13.086,10.601-23.698,23.693-23.698c13.086,0,23.703,10.606,23.703,23.698
		C232.012,151.546,221.4,162.152,208.314,162.152z M220.165,103.987c-9.018,0-16.328-7.305-16.328-16.328s7.31-16.328,16.328-16.328
		c9.018,0,16.328,7.305,16.328,16.328S229.183,103.987,220.165,103.987z M254.132,129.507c-9.023,0-16.328-7.31-16.328-16.334
		c0-9.018,7.305-16.328,16.328-16.328c9.018,0,16.328,7.31,16.328,16.328C270.46,122.197,263.15,129.507,254.132,129.507z"/>
</g>
<g>
</g>
<g>
</g>
<g>
</g>
<g>
</g>
<g>
</g>
<g>
</g>
<g>
</g>
<g>
</g>
<g>
</g>
<g>
</g>
<g>
</g>
<g>
</g>
<g>
</g>
<g>
</g>
<g>
</g>
</svg>
