<?xml version="1.0" encoding="iso-8859-1"?>
<!-- Generator: Adobe Illustrator 16.0.0, SVG Export Plug-In . SVG Version: 6.00 Build 0)  -->
<!DOCTYPE svg PUBLIC "-//W3C//DTD SVG 1.1//EN" "http://www.w3.org/Graphics/SVG/1.1/DTD/svg11.dtd">
<svg version="1.1" id="Capa_1" xmlns="http://www.w3.org/2000/svg" xmlns:xlink="http://www.w3.org/1999/xlink" x="0px" y="0px"
	 width="612px" height="612px" viewBox="0 0 612 612" style="enable-background:new 0 0 612 612;" xml:space="preserve">
<g>
	<g>
		<g id="group-20svg">
			<path id="path-1_12_" d="M313.231,612l-16.481-0.092c-94.09-10.529-147.43-34.421-203.786-91.317
				c-2.518-2.519-5.26-5.882-7.889-9.153c-1.203-1.509-2.375-2.977-3.486-4.271c-2.711-3.108-12.058-14.881-15.146-18.815
				C27.047,438.313,6.294,379.409,4.775,313.277l-0.03-14.657c1.539-55.959,16.441-106.729,44.288-151.364
				c11.864-18.755,25.788-36.124,41.403-51.719c0.795-1.09,1.692-2.12,2.63-3.078c4.556-4.556,9.5-9.051,14.545-13.536
				c7.146-6.421,17.715-8.705,27.001-5.718l4.148,1.396c43.106,15.86,85.11,45.99,125.271,89.687
				c10.244,11.151,9.785,28.143-1.04,38.702c-47.04,45.95-94.926,107.943-129.389,164.564
				c38.101-45.328,84.234-97.281,122.101-127.707c9.591-8.368,20.691-17.083,33.463-26.257c9.428-6.829,22.965-6.86,32.465,0.041
				c10.906,7.879,21.506,16.084,32.393,25.034c1.59,1.091,3.098,2.354,4.465,3.761c36.652,30.15,81.062,79.994,118.227,124.016
				C442.212,310.21,394.694,248.92,348.173,203.47c-10.896-10.601-11.6-28.183-1.529-39.171
				c40.182-43.707,81.982-73.766,124.221-89.34l5.098-1.712c9.846-3.19,19.896-0.806,27.193,5.718l1.08,0.969
				c4.617,4.159,9.236,8.327,13.414,12.517c19.02,19.051,34.82,39.171,44.553,54.583c28.469,45.613,45.053,96.404,45.053,151.027
				v14.209c0,65.407-22.078,124.21-61.35,174.767c-3.293,4.251-13.658,15.463-16.584,18.775c-1.121,1.295-2.783,3.119-3.955,4.893
				c-2.305,3.496-4.965,7.104-7.992,10.091c-54.521,55.072-90.4,80.392-203.275,91.145L313.231,612z M299.319,581.401h12.475
				c103.266-9.918,132.467-30.487,183.738-82.277c0.896-0.907,2.619-3.526,3.76-5.259c1.979-2.997,3.996-5.953,5.943-8.206
				c2.6-2.945,11.447-13.647,14.361-17.409c0.316-0.397,0.621-0.795,0.928-1.192c-5.637-6.432-13.639-16.187-25.777-30.977
				c-39.916-48.63-106.721-130.01-156.41-170.618l-3.109-2.64c-10.049-8.297-19.834-15.901-29.844-23.199
				c-11.334,8.195-21.161,15.952-30.059,23.698C224.85,303.88,157.76,385.861,117.682,434.848
				c-13.638,16.676-22.16,27.083-27.979,33.575c0.255,0.337,0.52,0.673,0.785,1.01c2.905,3.7,11.61,14.708,14.178,17.664
				c1.396,1.601,2.834,3.384,4.281,5.209c1.896,2.354,3.812,4.82,5.677,6.666C165.904,550.762,212.567,571.596,299.319,581.401z
				 M126.764,102.846c-4.22,3.761-8.297,7.471-12.048,11.232l-1.702,2.161c-14.413,14.24-27.225,30.161-38.081,47.305
				c-24.881,39.875-38.223,85.478-39.609,135.474l0.041,13.873c0.989,43.482,11.314,83.561,30.762,119.531
				c30.711-79.331,109.155-185.897,173.564-249.419c-36.256-38.998-73.613-65.754-111.062-79.545L126.764,102.846z M370.995,183.013
				c63.635,62.605,143.586,167.734,175.42,246.983c18.652-35.695,30.262-75.121,30.262-117.728V298.06
				c0-48.803-15.035-94.141-40.354-134.75c-13.354-21.099-25.85-35.848-39.232-49.242c-3.75-3.761-8.43-7.481-12.588-11.232
				l-3.211,0.989C444.679,117.32,407.282,144.015,370.995,183.013z"/>
			<path id="path-2_7_" d="M305.363,154.229c-5.779,0-11.151-1.866-15.544-5.382c-4.587-3.68-9.072-7.349-13.506-10.968
				c-32.739-26.715-63.685-51.922-84.305-46.459c-11.538,3.17-23.678-2.446-28.846-13.404c-5.229-11.039-1.59-26.206,7.981-33.096
				c33.29-23.841,68.873-31.649,107.555-40.7l12.578-2.457V0h22.689l3.008,1.366c18.143,8.236,35.867,12.375,53.002,16.37
				c23.311,5.433,47.396,11.06,69.535,26.909c9.725,7.003,13.221,21.109,7.992,32.148c-5.188,11.069-17.613,17.134-28.979,13.985
				c-20.121-5.372-50.955,19.713-83.428,46.286c-4.648,3.812-9.367,7.665-14.148,11.518
				C316.401,152.23,310.878,154.229,305.363,154.229z M203.934,60.311c29.172,2.813,58.599,26.838,91.705,53.859
				c3.16,2.579,6.36,5.178,9.571,7.797c3.537-2.875,7.054-5.749,10.529-8.593c32.129-26.287,60.76-49.731,89.035-53.441
				c-12.701-5.626-26.512-8.847-41.74-12.395c-16.838-3.935-35.838-8.358-55.611-16.94h-9.47l-14.464,3.415
				C252.962,41.159,227.755,47.061,203.934,60.311z"/>
		</g>
	</g>
	<g>
	</g>
	<g>
	</g>
	<g>
	</g>
	<g>
	</g>
	<g>
	</g>
	<g>
	</g>
	<g>
	</g>
	<g>
	</g>
	<g>
	</g>
	<g>
	</g>
	<g>
	</g>
	<g>
	</g>
	<g>
	</g>
	<g>
	</g>
	<g>
	</g>
</g>
<g>
</g>
<g>
</g>
<g>
</g>
<g>
</g>
<g>
</g>
<g>
</g>
<g>
</g>
<g>
</g>
<g>
</g>
<g>
</g>
<g>
</g>
<g>
</g>
<g>
</g>
<g>
</g>
<g>
</g>
</svg>
